# xmcd CD database file
#
# Track frame offsets:
#	150
#	22051
#	36701
#	55872
#	71596
#	95391
#	108927
#	126662
#	138554
#	152258
#	173436
#	187514
#	206279
#	222929
#
# Disc length: 3069 seconds
#
# Revision: 0
# Processed by: cddbd v1.5.2PL0 Copyright (c) Steve Scherf et al.
# Submitted via: CDex 1.51
#
DISCID=bf0bfb0e
DTITLE=David Lanz - Sacred Road Revisited
DYEAR=2006
DGENRE=New Age
TTITLE0=Dreamer's Waltz
TTITLE1=A Path with Heart
TTITLE2=Where the Tall Tree Grows
TTITLE3=Still Life
TTITLE4=Nocturne
TTITLE5=Compassionata
TTITLE6=Sacred Road
TTITLE7=Take the High Road
TTITLE8=On Our Way Home
TTITLE9=Dreamer's Waltz
TTITLE10=Brother Quixote
TTITLE11=Where the Tall Tree Grows
TTITLE12=The Long Goodbye
TTITLE13=And the Road Goes On
EXTD=YEAR: 2006
EXTT0=
EXTT1=
EXTT2=
EXTT3=
EXTT4=
EXTT5=
EXTT6=
EXTT7=
EXTT8=
EXTT9=
EXTT10=
EXTT11=
EXTT12=
EXTT13=
PLAYORDER=
